<?xml version="1.0" encoding="UTF-8"?>
<svg xmlns="http://www.w3.org/2000/svg" viewBox="0 0 620 160" >
<rect width="620" height="160" rx="24" fill="#0B1218"/>
  
  <g transform="translate(32 48) scale(1)" fill="none" stroke-linecap="round" stroke-linejoin="round">
    <path d="M28 8H12a4 4 0 0 0-4 4v16" stroke="#08756D" stroke-width="7" stroke-dasharray="40" stroke-dashoffset="40"><animate attributeName="stroke-dashoffset" from="40" to="0" dur=".32s" begin="0s" fill="freeze"/></path>
    <path d="M36 56h16a4 4 0 0 0 4-4V36" stroke="#08756D" stroke-width="7" stroke-dasharray="40" stroke-dashoffset="40"><animate attributeName="stroke-dashoffset" from="40" to="0" dur=".32s" begin="0s" fill="freeze"/></path>
    <path d="M19 20h26" stroke="#F4F7F5" stroke-width="7" stroke-dasharray="28" stroke-dashoffset="28"><animate attributeName="stroke-dashoffset" from="28" to="0" dur=".26s" begin=".26s" fill="freeze"/></path>
    <path d="M32 20v25" stroke="#F4F7F5" stroke-width="7" stroke-dasharray="25" stroke-dashoffset="25"><animate attributeName="stroke-dashoffset" from="25" to="0" dur=".24s" begin=".46s" fill="freeze"/></path>
    <g transform="translate(32 20)" opacity="0">
        <circle r="4.5" fill="#BDEB62" stroke="none"/>
        <animate attributeName="opacity" from="0" to="1" dur=".12s" begin=".66s" fill="freeze"/>
        <animateTransform attributeName="transform" type="scale" values=".3;1.18;1" dur=".28s" begin=".66s" fill="freeze" additive="sum"/>
      </g>
  </g>
  
  <g transform="translate(128 56) scale(1)" fill="none" stroke="#F4F7F5" stroke-width="6" stroke-linecap="round" stroke-linejoin="round">
    <g transform="translate(0 0)" opacity="0"><animate attributeName="opacity" from="0" to="1" dur=".14s" begin="0.720s" fill="freeze"/><path d="M2 3h32M18 3v42"/></g>
<g transform="translate(50 0)" opacity="0"><animate attributeName="opacity" from="0" to="1" dur=".14s" begin="0.765s" fill="freeze"/><path d="M2 45 19 3l17 42M8.8 29h20.4"/></g>
<g transform="translate(102 0)" opacity="0"><animate attributeName="opacity" from="0" to="1" dur=".14s" begin="0.810s" fill="freeze"/><path d="M36 9c-3.7-4.3-8.5-6.5-14.2-6.5C10.6 2.5 3 11.1 3 24s7.6 21.5 18.8 21.5c5.7 0 10.5-2.2 14.2-6.5"/></g>
<g transform="translate(156 0)" opacity="0"><animate attributeName="opacity" from="0" to="1" dur=".14s" begin="0.855s" fill="freeze"/><path d="M2 3h32M18 3v42"/></g>
<g transform="translate(206 0)" opacity="0"><animate attributeName="opacity" from="0" to="1" dur=".14s" begin="0.900s" fill="freeze"/><path d="M20 2.5C9.5 2.5 3 10.9 3 24s6.5 21.5 17 21.5S37 37.1 37 24 30.5 2.5 20 2.5Z"/></g>
<g transform="translate(260 0)" opacity="0"><animate attributeName="opacity" from="0" to="1" dur=".14s" begin="0.945s" fill="freeze"/><path d="m2 3 17 42L36 3"/></g>
<g transform="translate(312 0)" opacity="0"><animate attributeName="opacity" from="0" to="1" dur=".14s" begin="0.990s" fill="freeze"/><path d="M11 3v42"/></g>
<g transform="translate(348 0)" opacity="0"><animate attributeName="opacity" from="0" to="1" dur=".14s" begin="1.035s" fill="freeze"/><path d="M2 45 19 3l17 42M8.8 29h20.4"/></g>
  </g>
  <text x="128" y="128" fill="#F4F7F5" opacity="0" font-family="Arial, sans-serif" font-size="14" letter-spacing="2.1">
    VE EL JUEGO. DECIDE MEJOR.
    <animate attributeName="opacity" from="0" to=".72" dur=".3s" begin="1.08s" fill="freeze"/>
  </text>
</svg>
